# xmcd
#
# Track frame offsets:
#	150
#	16797
#	34180
#	47340
#	62255
#	78287
#	91022
#	103837
#	120977
#	129835
#	144190
#	156385
#	175330
#
# Disc length: 2578 seconds
#
# Revision: 0
# Processed by: cddbd v1.5.2PL0 Copyright (c) Steve Scherf et al.
# Submitted via: EZCDAudioConverter 2.0.7.1
#
DISCID=8e0a100d
DTITLE=Prairie Orchid - New Day
DYEAR=1900
DGENRE=
TTITLE0=Early
TTITLE1=Build That Ark
TTITLE2=Here Comes That Rainbow Again
TTITLE3=New Day
TTITLE4=Man Gave Names to All the Animals
TTITLE5=Come Take a Trip in My Airship
TTITLE6=Don't You See That Train
TTITLE7=Music in My Mothers House
TTITLE8=To-Bed Song
TTITLE9=Cattle Call
TTITLE10=All But the Embers
TTITLE11=Silken Dreams
TTITLE12=Go in Peace
EXTD=
EXTT0=
EXTT1=
EXTT2=
EXTT3=
EXTT4=
EXTT5=
EXTT6=
EXTT7=
EXTT8=
EXTT9=
EXTT10=
EXTT11=
EXTT12=
PLAYORDER=
